<svg t="1611922322256" class="icon" viewBox="0 0 1194 1024" version="1.1" xmlns="http://www.w3.org/2000/svg" p-id="1203" width="300" height="300"><path d="M217.045333 413.312l318.634667 106.24h106.24l265.514667-79.701333v398.336l-265.514667 159.317333h-106.24l-318.634667-159.317333V413.312z m743.509334-159.317333l106.24 53.12v318.464a53.034667 53.034667 0 0 1-53.12 53.290666 53.248 53.248 0 0 1-53.12-52.949333V253.994667z" p-id="1204"></path><path d="M907.434667 678.826667a106.24 106.24 0 1 0 212.48 0.042666 106.24 106.24 0 0 0-212.48 0zM535.68 41.557333h106.24l531.072 212.437334v53.12l-531.072 159.317333h-106.24L4.608 307.114667V253.994667z" p-id="1205"></path></svg>